<?xml version="1.0" encoding="iso-8859-1"?>
<!-- Generator: Adobe Illustrator 19.0.0, SVG Export Plug-In . SVG Version: 6.00 Build 0)  -->
<svg xmlns="http://www.w3.org/2000/svg" xmlns:xlink="http://www.w3.org/1999/xlink" version="1.1" id="Layer_1" x="0px" y="0px" viewBox="0 0 512 512" style="enable-background:new 0 0 512 512;" xml:space="preserve" width="512" height="512">
<g>
	<g>
		<path style="fill:#C5E1E6;" d="M111.4,48.201H63.2c-8.284,0-15,6.716-15,15V111.4c0,8.284,6.716,15,15,15H111.4    c8.284,0,15-6.716,15-15V63.201C126.4,54.917,119.684,48.201,111.4,48.201z"/>
		<path style="fill:#8DB9C4;" d="M448.799,48.201h-48.199c-8.283,0-15,6.716-15,15V111.4c0,8.284,6.717,15,15,15h48.199    c8.285,0,15-6.716,15-15V63.201C463.799,54.917,457.084,48.201,448.799,48.201z"/>
		<path style="fill:#3D5959;" d="M336.334,0H175.666C158.536,0,144.6,13.936,144.6,31.066V111.4c0,8.284,6.716,15,14.999,15h48.201    c8.283,0,15-6.716,15-15V78.201h66.398V111.4c0,8.284,6.717,15,15,15H352.4c8.283,0,15-6.716,15-15V31.066    C367.4,13.936,353.464,0,336.334,0z"/>
		<path style="fill:#293939;" d="M304.199,126.4H352.4c8.283,0,15-6.716,15-15V31.066C367.4,13.936,353.464,0,336.334,0H256v78.201    h33.199V111.4C289.199,119.685,295.916,126.4,304.199,126.4z"/>
	</g>
	<path style="fill:#FF4949;" d="M456.834,96.4H55.167C24.748,96.4,0,121.147,0,151.566v305.266C0,487.252,24.748,512,55.167,512   h401.667C487.252,512,512,487.252,512,456.832V151.566C512,121.147,487.252,96.4,456.834,96.4z"/>
	<path style="fill:#F30051;" d="M456.834,96.4H256V512h200.834C487.252,512,512,487.252,512,456.832V151.566   C512,121.147,487.252,96.4,456.834,96.4z"/>
	<path style="fill:#FEF4F5;" d="M352.4,257.066h-49.268v-49.266c0-8.284-6.715-15-15-15h-64.266c-8.285,0-15,6.716-15,15v49.266   h-49.268c-8.284,0-14.999,6.716-14.999,15v64.268c0,8.284,6.716,15,14.999,15h49.268V400.6c0,8.284,6.715,15,15,15h64.266   c8.285,0,15-6.716,15-15v-49.266H352.4c8.283,0,15-6.716,15-15v-64.268C367.4,263.782,360.683,257.066,352.4,257.066z"/>
	<path style="fill:#D5EDED;" d="M288.133,415.6c8.285,0,15-6.716,15-15v-49.266H352.4c8.283,0,15-6.716,15-15v-64.268   c0-8.284-6.717-15-15-15h-49.268v-49.266c0-8.284-6.715-15-15-15H256V415.6H288.133z"/>
</g>















</svg>
